<svg xmlns="http://www.w3.org/2000/svg" width="30" height="24" viewBox="0 0 30 24">
    <g fill="none" fill-rule="evenodd" opacity=".5">
        <path stroke="#000" stroke-linecap="round" stroke-linejoin="round" d="M-.522 18.613l15.472-4.716 15.472 4.716-15.472 4.716-15.472-4.716z"/>
        <path fill="#000" d="M15.036 18.794S9.979 8.511 9.979 5.722c0-2.788 2.248-5.05 5.021-5.05 2.773 0 5.02 2.262 5.02 5.05 0 2.789-4.984 13.072-4.984 13.072zm.165-10.85a2.417 2.417 0 0 0 2.41-2.424 2.417 2.417 0 0 0-2.41-2.423 2.417 2.417 0 0 0-2.41 2.423 2.417 2.417 0 0 0 2.41 2.424z"/>
    </g>
</svg>
